HIERARCHY
ROOT Hips
{
  OFFSET -21.6994 31.6921 0
  CHANNELS 6 Xposition Yposition Zposition Zrotation Xrotation Yrotation
  JOINT Bip01_Pelvis
  {
    OFFSET 0 0 0
    CHANNELS 6 Xposition Yposition Zposition Zrotation Xrotation Yrotation
    JOINT BN_Tail_01
    {
      OFFSET -7.25226 -1.74978 0
      CHANNELS 6 Xposition Yposition Zposition Zrotation Xrotation Yrotation
      JOINT BN_Tail_02
      {
        OFFSET 15.788 0 0
        CHANNELS 6 Xposition Yposition Zposition Zrotation Xrotation Yrotation
        JOINT BN_Tail_03
        {
          OFFSET 16.0015 0 0
          CHANNELS 6 Xposition Yposition Zposition Zrotation Xrotation Yrotation
          JOINT BN_Tail_04
          {
            OFFSET 16.1689 0 0
            CHANNELS 6 Xposition Yposition Zposition Zrotation Xrotation Yrotation
            End Site
            {
              OFFSET 0 0 0
            }
          }
        }
      }
    }
    JOINT Bip01_Spine
    {
      OFFSET 6.38383 2.70859 0.585432
      CHANNELS 6 Xposition Yposition Zposition Zrotation Xrotation Yrotation
      JOINT BN_Mane_02
      {
        OFFSET 6.12662 8.45826 0
        CHANNELS 6 Xposition Yposition Zposition Zrotation Xrotation Yrotation
        End Site
        {
          OFFSET 0 0 0
        }
      }
      JOINT Bip01_R_Thigh
      {
        OFFSET -7.04074 -2.18223 -5.47025
        CHANNELS 6 Xposition Yposition Zposition Zrotation Xrotation Yrotation
        JOINT Bip01_R_Calf
        {
          OFFSET 13.6591 0 0
          CHANNELS 6 Xposition Yposition Zposition Zrotation Xrotation Yrotation
          JOINT Bip01_R_HorseLink
          {
            OFFSET 9.07516 0 0
            CHANNELS 6 Xposition Yposition Zposition Zrotation Xrotation Yrotation
            JOINT Bip01_R_Foot
            {
              OFFSET 8.13856 0 0
              CHANNELS 6 Xposition Yposition Zposition Zrotation Xrotation Yrotation
              JOINT Bip01_R_Toe0
              {
                OFFSET 3.79737 6.30086 0
                CHANNELS 6 Xposition Yposition Zposition Zrotation Xrotation Yrotation
                JOINT Bip01_R_Toe0Nub
                {
                  OFFSET 0.838764 0 0
                  CHANNELS 6 Xposition Yposition Zposition Zrotation Xrotation Yrotation
                  End Site
                  {
                    OFFSET 0 0 0
                  }
                }
              }
            }
          }
        }
      }
      JOINT Bip01_L_Thigh
      {
        OFFSET -6.18667 -2.14873 5.3508
        CHANNELS 6 Xposition Yposition Zposition Zrotation Xrotation Yrotation
        JOINT Bip01_L_Calf
        {
          OFFSET 13.6591 0 0
          CHANNELS 6 Xposition Yposition Zposition Zrotation Xrotation Yrotation
          JOINT Bip01_L_HorseLink
          {
            OFFSET 9.07515 0 0
            CHANNELS 6 Xposition Yposition Zposition Zrotation Xrotation Yrotation
            JOINT Bip01_L_Foot
            {
              OFFSET 8.13856 0 0
              CHANNELS 6 Xposition Yposition Zposition Zrotation Xrotation Yrotation
              JOINT Bip01_L_Toe0
              {
                OFFSET 3.79737 6.30086 0
                CHANNELS 6 Xposition Yposition Zposition Zrotation Xrotation Yrotation
                JOINT Bip01_L_Toe0Nub
                {
                  OFFSET 0.838764 0 0
                  CHANNELS 6 Xposition Yposition Zposition Zrotation Xrotation Yrotation
                  End Site
                  {
                    OFFSET 0 0 0
                  }
                }
              }
            }
          }
        }
      }
      JOINT Bip01_Spine1
      {
        OFFSET 12.1687 -0.0105438 0
        CHANNELS 6 Xposition Yposition Zposition Zrotation Xrotation Yrotation
        JOINT BN_Mane_R_01
        {
          OFFSET -0.157498 5.09008 -6.54008
          CHANNELS 6 Xposition Yposition Zposition Zrotation Xrotation Yrotation
          End Site
          {
            OFFSET 0 0 0
          }
        }
        JOINT BN_Mane_R_02
        {
          OFFSET -0.1575 5.09007 6.54
          CHANNELS 6 Xposition Yposition Zposition Zrotation Xrotation Yrotation
          End Site
          {
            OFFSET 0 0 0
          }
        }
        JOINT BN_Mane_01
        {
          OFFSET 8.29709 8.50414 0
          CHANNELS 6 Xposition Yposition Zposition Zrotation Xrotation Yrotation
          End Site
          {
            OFFSET 0 0 0
          }
        }
        JOINT Bip01_Spine2
        {
          OFFSET 13.2802 -0.0100708 1.51992e-005
          CHANNELS 6 Xposition Yposition Zposition Zrotation Xrotation Yrotation
          JOINT Bip01_Neck
          {
            OFFSET 12.4891 -6.66662 0
            CHANNELS 6 Xposition Yposition Zposition Zrotation Xrotation Yrotation
            JOINT Bip01_R_Clavicle
            {
              OFFSET -7.4542 -2.82621 -1.17874
              CHANNELS 6 Xposition Yposition Zposition Zrotation Xrotation Yrotation
              JOINT Bip01_R_UpperArm
              {
                OFFSET 13.2557 0 0
                CHANNELS 6 Xposition Yposition Zposition Zrotation Xrotation Yrotation
                JOINT Bip01_R_Forearm
                {
                  OFFSET 12.8897 0 0
                  CHANNELS 6 Xposition Yposition Zposition Zrotation Xrotation Yrotation
                  JOINT Bip01_R_Hand
                  {
                    OFFSET 11.2622 0 0
                    CHANNELS 6 Xposition Yposition Zposition Zrotation Xrotation Yrotation
                    JOINT Bip01_R_Finger0
                    {
                      OFFSET 3.98015 -0.208661 -0.0949803
                      CHANNELS 6 Xposition Yposition Zposition Zrotation Xrotation Yrotation
                      JOINT Bip01_R_Finger0Nub
                      {
                        OFFSET 6.57561 0 0
                        CHANNELS 6 Xposition Yposition Zposition Zrotation Xrotation Yrotation
                        End Site
                        {
                          OFFSET 0 0 0
                        }
                      }
                    }
                  }
                }
              }
            }
            JOINT Bip01_L_Clavicle
            {
              OFFSET -7.4541 -2.82679 1.17708
              CHANNELS 6 Xposition Yposition Zposition Zrotation Xrotation Yrotation
              JOINT Bip01_L_UpperArm
              {
                OFFSET 13.2558 0 0
                CHANNELS 6 Xposition Yposition Zposition Zrotation Xrotation Yrotation
                JOINT Bip01_L_Forearm
                {
                  OFFSET 12.8897 0 0
                  CHANNELS 6 Xposition Yposition Zposition Zrotation Xrotation Yrotation
                  JOINT Bip01_L_Hand
                  {
                    OFFSET 11.2622 0 0
                    CHANNELS 6 Xposition Yposition Zposition Zrotation Xrotation Yrotation
                    JOINT Bip01_L_Finger0
                    {
                      OFFSET 3.98014 -0.20866 0.0949764
                      CHANNELS 6 Xposition Yposition Zposition Zrotation Xrotation Yrotation
                      JOINT Bip01_L_Finger0Nub
                      {
                        OFFSET 6.57562 0 0
                        CHANNELS 6 Xposition Yposition Zposition Zrotation Xrotation Yrotation
                        End Site
                        {
                          OFFSET 0 0 0
                        }
                      }
                    }
                  }
                }
              }
            }
            JOINT Bip01_Neck1
            {
              OFFSET 4.19352 -0.00332451 0
              CHANNELS 6 Xposition Yposition Zposition Zrotation Xrotation Yrotation
              JOINT Bip01_Head
              {
                OFFSET 4.17604 0.298252 0
                CHANNELS 6 Xposition Yposition Zposition Zrotation Xrotation Yrotation
                JOINT BN_Eye_R_01
                {
                  OFFSET 6.53258 -3.90694 -2.55361
                  CHANNELS 6 Xposition Yposition Zposition Zrotation Xrotation Yrotation
                  End Site
                  {
                    OFFSET 0 0 0
                  }
                }
                JOINT BN_Eye_L_01
                {
                  OFFSET 6.5326 -3.90694 2.55371
                  CHANNELS 6 Xposition Yposition Zposition Zrotation Xrotation Yrotation
                  End Site
                  {
                    OFFSET 0 0 0
                  }
                }
                JOINT BN_Ear_R_01
                {
                  OFFSET 1.75934 -4.1584 -4.45634
                  CHANNELS 6 Xposition Yposition Zposition Zrotation Xrotation Yrotation
                  End Site
                  {
                    OFFSET 0 0 0
                  }
                }
                JOINT BN_Ear_L_01
                {
                  OFFSET 1.75933 -4.15841 4.45616
                  CHANNELS 6 Xposition Yposition Zposition Zrotation Xrotation Yrotation
                  End Site
                  {
                    OFFSET 0 0 0
                  }
                }
                JOINT BN_Beard_L_01
                {
                  OFFSET 11.2964 -1.06183 2.32054
                  CHANNELS 6 Xposition Yposition Zposition Zrotation Xrotation Yrotation
                  End Site
                  {
                    OFFSET 0 0 0
                  }
                }
                JOINT BN_Beard_R_01
                {
                  OFFSET 11.2964 -1.06182 -2.32036
                  CHANNELS 6 Xposition Yposition Zposition Zrotation Xrotation Yrotation
                  End Site
                  {
                    OFFSET 0 0 0
                  }
                }
                JOINT BN_Mouth_0
                {
                  OFFSET 1.3149 1.30001 0
                  CHANNELS 6 Xposition Yposition Zposition Zrotation Xrotation Yrotation
                  End Site
                  {
                    OFFSET 0 0 0
                  }
                }
                JOINT Bip01_HeadNub
                {
                  OFFSET 12.6869 0 0
                  CHANNELS 6 Xposition Yposition Zposition Zrotation Xrotation Yrotation
                  End Site
                  {
                    OFFSET 0 0 0
                  }
                }
              }
            }
          }
        }
      }
    }
  }
}
MOTION
Frames:	4
Frame Time:	0.0333333
-13.4913 26.8393 3.43625e-007 17.7792 -90 90 0 1.13687e-013 0 -89.9975 5.08384 -89.9979 -7.25225 -1.74978 2.9104e-011 56.0453 -2.80447 168.169 15.788 -7.6294e-006 -1.46549e-013 7.84682 23.1245 15.1668 16.0015 7.10543e-015 -4.76837e-007 31.79 65.0874 8.37712 16.1689 1.90735e-006 -3.8147e-006 -8.20029 23.3983 30.6673 6.14614 3.2669 2.53998e-006 15.9077 -2.41658 2.37217 6.12662 8.45826 2.20669e-008 -100.211 0.0923948 -169.218 -6.57338 -1.22641 -5.76153 -76.6198 3.46342 172.994 13.6591 -1.90735e-006 -4.76837e-007 -102.475 -1.9522e-006 8.96747e-006 9.07516 1.90735e-006 -4.76837e-007 101.353 0.00595937 0.00219335 8.13855 7.95453e-012 0.000599384 -18.9052 -2.47599 8.47252 3.79727 6.30092 0.000617027 117.629 -2.78926e-009 -2.3484e-009 0.838764 2.98023e-008 8.88178e-015 -2.49269e-008 -4.1922e-010 -2.34537e-009 -7.02238 -1.68459 5.07425 -86.1743 2.77806 -172.488 13.6591 5.32907e-015 -8.88178e-016 -82.2965 -8.42032e-006 1.15936e-005 9.07517 -1.06581e-014 4.76837e-007 77.3313 2.03694e-006 -9.57667e-006 8.13855 -3.8147e-006 -4.76837e-007 2.23097 -8.40174 -5.2779 3.79738 6.30085 -1.87764e-008 89.9816 0.000206243 -8.96965 0.838766 2.98023e-008 3.55271e-015 -179.96 0.000454164 -0.000393996 12.1681 -0.0104809 3.09024e-011 -24.1982 3.6539 -3.70488 -0.157501 5.09008 -6.54008 -97.5884 -0.819021 165.641 -0.157504 5.09007 6.54 69.925 -3.70398 -13.7447 8.29709 8.50413 1.32432e-008 -91.6509 -0.000132707 -150.425 13.2792 -0.0098629 -1.53593e-011 -23.0704 7.355 -4.96634 12.4882 -6.66643 -7.4531e-008 5.12352 -1.70074 -14.8879 -7.87162 -1.51154 0.82658 155.401 -50.9221 96.1349 13.2557 5.32907e-015 0 90.913 47.4755 -115.886 12.8897 -3.8147e-006 -9.53675e-007 -50.4096 -1.08641e-005 -1.35295e-005 11.2622 4.76837e-007 -7.10543e-015 -5.66326 56.0067 -0.475808 3.98015 -0.208658 -0.0949765 7.54966 42.5384 -15.162 6.57561 2.38418e-007 -1.19209e-007 179.96 1.72927e-005 1.73289e-005 -7.2665 -1.58157 3.10229 -165.095 52.3142 -118.661 13.2558 3.55271e-015 -9.53674e-007 -99.8318 -70.948 -65.828 12.8897 9.53674e-007 -1.06581e-014 -47.8755 -1.29198e-006 -1.85773e-006 11.2622 -7.10542e-015 5.32907e-015 62.6036 -85.3837 57.2435 3.98015 -0.208661 0.0949821 2.18986 -6.11549 18.3878 6.57562 2.86102e-006 1.1921e-007 1.46954e-007 -1.12795e-009 -5.55533e-009 4.195 -0.00313187 -4.25366e-011 -12.7199 0.543506 7.45179 4.17603 0.298256 6.88953e-009 60.9732 12.2265 13.8103 6.53258 -3.90694 -2.55361 133.025 18.1401 163.593 6.5326 -3.90695 2.55371 -46.976 18.1112 -16.4184 1.75935 -4.1584 -4.45634 24.5419 -44.5549 111.616 1.75933 -4.15841 4.45617 -155.447 -44.5602 -68.3725 11.2964 -1.06184 2.32054 141.105 -16.2504 -122.863 11.2964 -1.06183 -2.32036 -41.6826 -29.4563 62.523 1.31489 1.30001 -6.7131e-009 -161.079 -0.0506439 -179.992 12.6869 -3.8147e-006 1.06581e-014 -1.00627e-005 1.29146e-011 -1.34282e-010 
-10.3875 25.702 4.63477e-007 13.9662 -90 90 0 1.13687e-013 0 -89.9932 0.13559 -89.998 -7.25225 -1.74978 2.91046e-011 56.4133 -2.92834 168.308 15.788 -7.6294e-006 -1.44773e-013 5.47941 22.8687 17.2901 16.0015 7.10543e-015 -4.76837e-007 29.0936 66.979 8.7376 16.1689 1.90735e-006 -3.8147e-006 -2.97987 22.4086 26.2972 6.40618 2.72484 2.53998e-006 17.9747 0.308113 3.49248 6.12662 8.45826 3.61192e-008 -102.558 -0.000103796 -166.962 -6.59099 -0.643747 -5.83646 -87.5534 4.64178 170.282 13.6591 -1.90735e-006 -4.76837e-007 -113.007 -3.52528e-006 8.57921e-006 9.07516 1.90735e-006 -4.76837e-007 107.952 0.00102519 0.0031617 8.13855 8.18901e-012 0.000599384 -15.819 -2.2315 9.05861 3.79727 6.30092 0.000617027 118.28 -2.03766e-009 -2.04993e-009 0.838764 2.98023e-008 1.77636e-015 -2.49269e-008 -4.1922e-010 -2.34537e-009 -7.25245 -0.585947 4.99797 -85.9399 4.39159 -175.181 13.6591 7.10543e-015 -2.66454e-015 -77.6273 -7.45239e-006 1.22896e-005 9.07517 -1.06581e-014 4.76837e-007 81.2925 1.17139e-006 -9.72959e-006 8.13855 -3.8147e-006 -4.76837e-007 4.62508 -8.56865 -5.48564 3.79738 6.30085 -2.02637e-008 89.9896 0.000169052 -8.78671 0.838766 2.98023e-008 0 -179.96 0.000454164 -0.000393996 12.1681 -0.0104809 1.34905e-011 -20.3549 4.85346 -5.76413 -0.1575 5.09008 -6.54008 -98.4021 -0.902795 168.171 -0.157504 5.09007 6.54 68.2998 -3.97859 -15.9358 8.29709 8.50413 2.77528e-009 -91.5165 -0.0233727 -150.961 13.2792 -0.0098629 -3.21856e-012 -20.7666 8.38333 -3.28558 12.4882 -6.66643 1.75776e-009 3.93396 -2.09396 -18.4846 -7.77742 -1.66489 1.2917 152.609 -49.5083 89.2293 13.2557 -5.32907e-015 7.10543e-015 79.9459 37.633 -107.679 12.8897 -3.8147e-006 -9.53675e-007 -70.2503 -5.49971e-006 -1.63423e-005 11.2622 4.76837e-007 -1.77636e-015 -11.385 56.3623 5.71989 3.98015 -0.208658 -0.0949765 5.09893 40.7977 9.1209 6.57562 2.38418e-007 -1.19209e-007 179.96 1.72927e-005 1.73297e-005 -7.03099 -1.75111 3.5245 -160.077 50.5587 -123.76 13.2558 0 -9.53674e-007 -122.048 -60.424 -83.5062 12.8897 9.53674e-007 -1.77636e-015 -33.3966 -7.33304e-006 6.95671e-006 11.2622 1.77636e-014 1.77636e-015 73.9545 -82.4179 77.6032 3.98015 -0.208661 0.0949821 -3.38841 -5.97921 27.4411 6.57562 2.86102e-006 1.1921e-007 1.46954e-007 -1.12794e-009 -5.55533e-009 4.195 -0.00313187 -1.87566e-011 -12.7006 -3.88286 9.91871 4.17603 0.298256 4.67802e-009 46.824 8.56711 12.5536 6.53258 -3.90694 -2.55361 133.025 18.1401 163.593 6.5326 -3.90695 2.55371 -46.976 18.1112 -16.4184 1.75935 -4.1584 -4.45634 24.722 -44.7573 115.787 1.75933 -4.15841 4.45617 -155.269 -44.7631 -64.2023 11.2964 -1.06184 2.32054 140.237 -18.0754 -121.301 11.2964 -1.06183 -2.32036 -42.3053 -29.3195 59.9348 1.31489 1.30001 -7.00781e-009 -158.567 -0.0434113 -179.992 12.6869 -3.8147e-006 1.33227e-014 -1.00627e-005 1.28606e-011 -1.34282e-010 
-8.48762 25.1387 5.38688e-007 11.2239 -90 90 0 1.13687e-013 0 -89.9979 -2.88559 -89.9977 -7.25225 -1.74978 2.91042e-011 55.9227 -2.91408 168.43 15.788 -7.6294e-006 -1.42997e-013 1.73083 22.3107 18.9023 16.0015 -1.77636e-015 -4.76837e-007 24.1411 67.1795 8.80584 16.1689 1.90735e-006 -3.8147e-006 3.84902 18.8357 21.6733 6.54146 2.38362 2.53998e-006 18.6208 1.90302 3.9183 6.12662 8.45826 4.19325e-008 -104.861 -0.000161935 -164.749 -6.57348 -0.349986 -5.88153 -94.9013 5.63051 169.27 13.6591 -1.90735e-006 -4.76837e-007 -114.959 -1.29986e-005 4.41213e-006 9.07516 1.90735e-006 -4.76837e-007 106.099 0.000922271 0.00319316 8.13855 7.73071e-012 0.000599384 -10.0121 -1.49601 9.1724 3.79727 6.30092 0.000617027 115.247 -2.28222e-009 -2.22545e-009 0.838764 2.98023e-008 5.32907e-015 -2.49269e-008 -4.1922e-010 -2.34537e-009 -7.31508 0.0107555 4.94185 -85.2945 5.11731 -176.906 13.6591 -1.77636e-015 -3.55271e-015 -71.9984 -6.1882e-006 1.29783e-005 9.07517 -1.06581e-014 4.76837e-007 80.9902 1.2672e-006 -9.67933e-006 8.13855 -3.8147e-006 -4.76837e-007 6.18371 -8.71629 -5.54822 3.79738 6.30085 -2.14466e-008 90.0004 0.000207238 -8.604 0.838766 2.98023e-008 -5.32907e-015 -179.96 0.000454164 -0.000393996 12.1681 -0.0104809 6.28814e-012 -17.4502 5.23695 -6.89168 -0.1575 5.09008 -6.54008 -99.2193 -1.02395 170.725 -0.157504 5.09006 6.54 67.7042 -4.07742 -16.7405 8.29709 8.50413 -5.07908e-009 -91.1347 -0.090974 -152.492 13.2792 -0.0098629 5.8894e-012 -18.2119 8.68713 -2.45209 12.4882 -6.66643 4.27389e-008 2.88227 -2.37998 -20.2953 -7.7069 -1.80141 1.5119 151.647 -48.9099 79.8848 13.2557 -1.77636e-015 0 92.456 54.4604 -115.595 12.8897 -3.8147e-006 -9.53675e-007 -26.4929 -1.52661e-005 -7.88866e-006 11.2622 4.76837e-007 -2.66454e-015 64.014 87.3636 -76.5073 3.98015 -0.208658 -0.0949765 8.42924 3.85442 -36.5465 6.57561 2.38418e-007 -1.19209e-007 179.96 1.72931e-005 1.73271e-005 -6.89043 -1.89939 3.71954 -157.49 49.3453 -125.974 13.2558 0 -9.53674e-007 -120.664 -71.853 -78.5647 12.8897 9.53674e-007 -5.32907e-015 -27.634 -6.19462e-006 7.77927e-006 11.2622 1.06581e-014 7.10543e-015 80.4369 -79.618 94.0371 3.98015 -0.208661 0.0949821 -8.5244 -6.05964 26.0978 6.57562 2.86102e-006 1.1921e-007 1.46954e-007 -1.12795e-009 -5.55533e-009 4.195 -0.00313187 4.51728e-012 -12.5972 -6.70091 10.9553 4.17603 0.298256 3.85507e-009 36.2933 6.78732 11.2795 6.53258 -3.90694 -2.55361 133.025 18.1401 163.594 6.5326 -3.90695 2.55371 -46.976 18.1112 -16.4184 1.75935 -4.1584 -4.45634 24.8257 -44.4152 119.756 1.75933 -4.15841 4.45617 -155.163 -44.4197 -60.2332 11.2964 -1.06184 2.32054 139.408 -19.9348 -119.738 11.2964 -1.06183 -2.32036 -41.8609 -28.8736 61.211 1.31489 1.30001 -6.17838e-009 -156.031 -0.0361023 -179.992 12.6869 -3.8147e-006 9.76996e-015 -1.00627e-005 1.29146e-011 -1.3428e-010 
-7.63177 25.1074 5.75662e-007 9.42458 -90 90 0 1.13687e-013 0 -89.9978 -4.41009 -89.9976 -7.25225 -1.74978 2.91046e-011 54.5803 -2.7516 168.539 15.788 -7.6294e-006 -1.48326e-013 -3.17187 21.5065 20.1148 16.0015 1.24345e-014 -4.76837e-007 17.0938 65.9673 8.71238 16.1689 1.90735e-006 -3.8147e-006 11.6681 12.6791 16.9267 6.60279 2.20851 2.53998e-006 17.7696 2.39506 3.94584 6.12662 8.45826 4.05857e-008 -106.928 -0.000145735 -162.763 -6.57227 -0.314624 -5.88495 -102.377 6.70325 169.836 13.6591 -1.90735e-006 -4.76837e-007 -114.382 -1.31728e-005 4.83335e-006 9.07516 1.90735e-006 -4.76837e-007 98.4297 0.000487678 0.00328751 8.13855 5.68434e-012 0.000599384 -2.95246 -0.602784 8.93892 3.79727 6.30092 0.000617027 110.145 -1.85239e-009 -1.97819e-009 0.838764 2.98023e-008 1.77636e-015 -2.49269e-008 -4.1922e-010 -2.34537e-009 -7.31885 0.139245 4.93459 -84.705 5.22974 -177.538 13.6591 3.55271e-015 -3.55271e-015 -67.8901 -5.2179e-006 1.33792e-005 9.07517 -1.42109e-014 4.76837e-007 78.8217 1.12922e-005 -7.66076e-006 8.13855 -3.8147e-006 -4.76837e-007 7.073 -8.81734 -5.52234 3.79738 6.30085 -2.21648e-008 90.289 0.00251067 -8.62624 0.838766 2.98023e-008 -3.55271e-015 -179.96 0.000454164 -0.000393996 12.1681 -0.0104809 7.95652e-012 -15.4212 4.96432 -7.11514 -0.1575 5.09008 -6.54008 -100.014 -1.17761 173.228 -0.157504 5.09006 6.54 68.0943 -4.08553 -16.4124 8.29709 8.50413 -7.65854e-009 -90.5663 -0.196276 -154.801 13.2792 -0.0098629 8.88078e-012 -15.3755 8.28565 -2.34381 12.4882 -6.66643 4.47081e-008 1.72487 -2.68204 -19.5344 -7.69511 -1.95083 1.38069 153.109 -49.8719 80.1714 13.2557 -1.77636e-015 0 86.6887 46.4355 -111.856 12.8897 -3.8147e-006 -9.53675e-007 -66.4668 -6.78923e-006 -1.56596e-005 11.2622 4.76837e-007 -5.32907e-015 129.442 87.7271 -116.511 3.98015 -0.208658 -0.0949765 8.37302 1.59043 -38.839 6.57561 2.38418e-007 -1.19209e-007 179.96 1.72931e-005 1.73269e-005 -6.9082 -2.06113 3.59847 -157.669 49.0277 -124.434 13.2558 1.77636e-015 -9.53674e-007 -9.25803 -83.2458 34.5231 12.8897 9.53674e-007 -3.55271e-015 -30.3487 -8.69996e-007 -7.6058e-007 11.2622 1.06581e-014 0 86.6981 -77.2157 106.681 3.98015 -0.208661 0.0949821 -12.7668 -5.63735 20.8054 6.57562 2.86102e-006 1.19209e-007 1.46954e-007 -1.12795e-009 -5.55533e-009 4.195 -0.00313187 2.2121e-011 -12.6236 -7.3432 9.73618 4.17603 0.298256 4.08236e-009 29.0016 5.18647 11.1676 6.53258 -3.90694 -2.55361 133.025 18.1401 163.594 6.5326 -3.90695 2.55371 -46.976 18.1112 -16.4184 1.75935 -4.1584 -4.45634 24.894 -44.0732 123.624 1.75933 -4.15841 4.45617 -155.093 -44.0763 -56.3645 11.2964 -1.06184 2.32054 138.883 -21.162 -118.345 11.2964 -1.06183 -2.32036 -40.7183 -27.5314 64.5678 1.31489 1.30001 -3.5156e-009 -153.544 -0.0289765 -179.993 12.6869 -3.8147e-006 7.99361e-015 -1.00627e-005 1.29703e-011 -1.34257e-010 
